<svg
  xmlns="http://www.w3.org/2000/svg"
  width="24"
  height="16"
  viewBox="0 0 24 16"
>
  <path
    fill="#fff"
    d="M0 2a2 2 0 0 1 2-2h20a2 2 0 0 1 2 2v12a2 2 0 0 1-2 2H2a2 2 0 0 1-2-2V2Z"
  />
  <path
    fill="#1e3764"
    d="M3 13.933v-2.6h.802c.583 0 .959.219.959.672a.6.6 0 0 1-.286.539c.241.111.382.327.382.62 0 .524-.382.769-.977.769Zm.516-1.52H3.9c.234 0 .334-.114.334-.326 0-.227-.182-.301-.427-.301h-.29Zm0 1.067h.32c.312 0 .494-.078.494-.323 0-.242-.156-.342-.45-.342h-.364Zm2.342.498c-.508 0-.765-.25-.765-.584 0-.367.301-.583.747-.587q.166.004.33.03v-.089c0-.227-.13-.334-.378-.334a1.3 1.3 0 0 0-.49.089l-.094-.401c.16-.067.416-.112.643-.112.546 0 .817.29.817.791v1.033c-.152.078-.438.164-.81.164m.312-.42v-.398a1.3 1.3 0 0 0-.263-.03c-.171 0-.305.067-.305.242 0 .156.112.238.308.238a.6.6 0 0 0 .26-.052m.859.375v-1.78c.267-.106.552-.162.84-.163.542 0 .854.268.854.762v1.18H8.21V12.79c0-.256-.119-.375-.345-.375a.8.8 0 0 0-.327.067v1.452Zm3.485-1.831-.097.405a1.1 1.1 0 0 0-.42-.093c-.3 0-.464.211-.464.56 0 .383.171.58.49.58.143-.004.284-.037.413-.097l.082.413a1.25 1.25 0 0 1-.535.107c-.617 0-.973-.382-.973-.988 0-.601.353-.999.943-.999.193 0 .383.037.561.112m1.107 1.876c-.572 0-.928-.398-.928-.996 0-.594.356-.992.928-.992.576 0 .925.398.925.992 0 .598-.349.996-.925.996m0-.424c.264 0 .402-.22.402-.572 0-.35-.138-.568-.402-.568-.26 0-.404.219-.404.568 0 .353.144.572.404.572m1.222.379v-1.78c.267-.106.552-.162.84-.163.542 0 .854.268.854.762v1.18h-.513V12.79c0-.256-.119-.375-.345-.375a.8.8 0 0 0-.327.067v1.452Zm2.85.045c-.442 0-.669-.242-.669-.732v-.803h-.253v-.408h.253v-.412l.513-.026v.438h.412v.408h-.412v.795c0 .216.089.316.256.316a1 1 0 0 0 .197-.022l.026.412a1.4 1.4 0 0 1-.323.034m1.293 0c-.508 0-.765-.25-.765-.584 0-.367.301-.583.747-.587q.166.004.33.03v-.089c0-.227-.13-.334-.378-.334a1.3 1.3 0 0 0-.49.089l-.094-.401c.16-.067.416-.112.643-.112.546 0 .817.29.817.791v1.033c-.152.078-.438.164-.81.164m.312-.42v-.398a1.3 1.3 0 0 0-.263-.03c-.171 0-.305.067-.305.242 0 .156.112.238.308.238a.6.6 0 0 0 .26-.052m2.252-1.456-.097.405a1.1 1.1 0 0 0-.42-.093c-.3 0-.464.211-.464.56 0 .383.171.58.49.58q.216-.007.413-.097l.082.413a1.25 1.25 0 0 1-.535.108c-.617 0-.973-.383-.973-.989 0-.601.352-.999.943-.999.193 0 .383.037.56.112m1.127 1.876c-.442 0-.669-.242-.669-.732v-.803h-.252v-.408h.252v-.412l.513-.026v.438h.412v.408h-.412v.795c0 .216.089.316.256.316a1 1 0 0 0 .197-.022l.026.412a1.4 1.4 0 0 1-.323.034"
  />
  <linearGradient
    id="a"
    x1="4.82"
    x2="11.404"
    y1="8.392"
    y2="5.946"
    gradientUnits="userSpaceOnUse"
  >
    <stop offset="0" stop-color="#005ab9" />
    <stop offset="1" stop-color="#1e3764" />
  </linearGradient>
  <path
    fill="url(#a)"
    d="M6.575 10.033c2.713 0 4.069-1.808 5.425-3.617H3v3.617Z"
  />
  <linearGradient
    id="b"
    x1="12.545"
    x2="19.536"
    y1="6.73"
    y2="4.345"
    gradientUnits="userSpaceOnUse"
  >
    <stop offset="0" stop-color="#fba900" />
    <stop offset="1" stop-color="#ffd800" />
  </linearGradient>
  <path
    fill="url(#b)"
    d="M17.425 2.8c-2.713 0-4.069 1.808-5.425 3.616h9V2.8Z"
  />
</svg>
